# xmcd
#
# Track frame offsets: 
#        150
#        18610
#        35502
#        51931
#        69954
#        75757
#        94890
#        111111
#        129278
#        140775
#        158807
#        174767
#        189539
#        205611
#        221336
#        236324
#
# Disc length: 3373 seconds
#
# Revision: 0
# Processed by: cddbd v1.5.2PL0 Copyright (c) Steve Scherf et al.
# Submitted via: ExactAudioCopy v1.3
#
DISCID=ca0d2b10
DTITLE=Kacey Musgraves - Golden Hour (Japan Version - Bonus Tracks)
DYEAR=2018
DGENRE=Country
TTITLE0=Slow Burn
TTITLE1=Lonely Weekend
TTITLE2=Butterflies
TTITLE3=Oh, What A World
TTITLE4=Mother
TTITLE5=Love Is a Wild Thing
TTITLE6=Space Cowboy
TTITLE7=Happy and Sad
TTITLE8=Velvet Elvis
TTITLE9=Wonder Woman
TTITLE10=High Horse
TTITLE11=Golden Hour
TTITLE12=Rainbow
TTITLE13=Merry Go 'Round (Bonus Track)
TTITLE14=Follow Your Arrow (Bonus Track)
TTITLE15=High Horse [Violents Remix] (Bonus Track)
EXTD=
EXTT0=
EXTT1=
EXTT2=
EXTT3=
EXTT4=
EXTT5=
EXTT6=
EXTT7=
EXTT8=
EXTT9=
EXTT10=
EXTT11=
EXTT12=
EXTT13=
EXTT14=
EXTT15=
PLAYORDER=
